solid OpenSCAD_Model
  facet normal -0.0423491 -0.999103 0
    outer loop
      vertex 0 -47 3
      vertex 0 -47 0
      vertex 27.5 -48.1656 0
    endloop
  endfacet
  facet normal -0.0423491 -0.999103 0
    outer loop
      vertex 27.5 -48.1656 3
      vertex 0 -47 3
      vertex 27.5 -48.1656 0
    endloop
  endfacet
  facet normal 0 0 -1
    outer loop
      vertex 57 -20 0
      vertex 27.5 -48.1656 0
      vertex 17 -20 0
    endloop
  endfacet
  facet normal 0 0 -1
    outer loop
      vertex 17 20 0
      vertex 0 47 0
      vertex 27.5 48.1656 0
    endloop
  endfacet
  facet normal 0 0 -1
    outer loop
      vertex 46.5562 57.7119 0
      vertex 27.5 62 0
      vertex 67.5 62 0
    endloop
  endfacet
  facet normal 0 0 -1
    outer loop
      vertex 57 20 0
      vertex 67.5 62 0
      vertex 67.5 43.9894 0
    endloop
  endfacet
  facet normal 0 0 -1
    outer loop
      vertex 57 20 0
      vertex 78.9271 1.76336 0
      vertex 57 -20 0
    endloop
  endfacet
  facet normal 0 0 -1
    outer loop
      vertex 57 -20 0
      vertex 78.9271 1.76336 0
      vertex 79.2406 1.22021 0
    endloop
  endfacet
  facet normal 0 0 -1
    outer loop
      vertex 27.5 -48.1656 0
      vertex 79.2406 1.22021 0
      vertex 79.4344 0.623735 0
    endloop
  endfacet
  facet normal 0 0 -1
    outer loop
      vertex 27.5 -48.1656 0
      vertex 79.4344 0.623735 0
      vertex 79.5 0 0
    endloop
  endfacet
  facet normal 0 0 -1
    outer loop
      vertex 27.5 -48.1656 0
      vertex 79.5 0 0
      vertex 79.4344 -0.623735 0
    endloop
  endfacet
  facet normal 0 0 -1
    outer loop
      vertex 27.5 -48.1656 0
      vertex 79.4344 -0.623735 0
      vertex 79.2406 -1.22021 0
    endloop
  endfacet
  facet normal 0 0 -1
    outer loop
      vertex 27.5 -48.1656 0
      vertex 79.2406 -1.22021 0
      vertex 78.9271 -1.76336 0
    endloop
  endfacet
  facet normal 0 0 -1
    outer loop
      vertex 27.5 -48.1656 0
      vertex 78.9271 -1.76336 0
      vertex 78.7667 -1.94142 0
    endloop
  endfacet
  facet normal 0 0 -1
    outer loop
      vertex 27.5 -48.1656 0
      vertex 78.7667 -1.94142 0
      vertex 67.5 -43.9894 0
    endloop
  endfacet
  facet normal 0 0 -1
    outer loop
      vertex 17 20 0
      vertex 46.1882 54.2099 0
      vertex 46.5562 54.2881 0
    endloop
  endfacet
  facet normal 0 0 -1
    outer loop
      vertex 0 -47 0
      vertex 0 47 0
      vertex 4.2 0 0
    endloop
  endfacet
  facet normal 0 0 -1
    outer loop
      vertex 0 -47 0
      vertex 4.2 0 0
      vertex 4.23933 -0.374241 0
    endloop
  endfacet
  facet normal 0 0 -1
    outer loop
      vertex 0 -47 0
      vertex 4.23933 -0.374241 0
      vertex 4.35562 -0.732126 0
    endloop
  endfacet
  facet normal 0 0 -1
    outer loop
      vertex 0 -47 0
      vertex 4.35562 -0.732126 0
      vertex 27.5 -48.1656 0
    endloop
  endfacet
  facet normal 0 0 -1
    outer loop
      vertex 4.35562 -0.732126 0
      vertex 4.54377 -1.05801 0
      vertex 27.5 -48.1656 0
    endloop
  endfacet
  facet normal 0 0 -1
    outer loop
      vertex 5.1 -1.55885 0
      vertex 27.5 -48.1656 0
      vertex 4.79556 -1.33766 0
    endloop
  endfacet
  facet normal 0 0 -1
    outer loop
      vertex 17 20 0
      vertex 27.5 48.1656 0
      vertex 45.4438 54.2881 0
    endloop
  endfacet
  facet normal 0 0 -1
    outer loop
      vertex 7.64438 0.732126 0
      vertex 0 47 0
      vertex 7.76067 0.374241 0
    endloop
  endfacet
  facet normal 0 0 -1
    outer loop
      vertex 17 20 0
      vertex 45.4438 54.2881 0
      vertex 45.8118 54.2099 0
    endloop
  endfacet
  facet normal 0 0 -1
    outer loop
      vertex 5.1 -1.55885 0
      vertex 5.44377 -1.7119 0
      vertex 27.5 -48.1656 0
    endloop
  endfacet
  facet normal 0 0 -1
    outer loop
      vertex 4.79556 1.33766 0
      vertex 0 47 0
      vertex 5.1 1.55885 0
    endloop
  endfacet
  facet normal 0 0 -1
    outer loop
      vertex 5.44377 -1.7119 0
      vertex 5.81185 -1.79014 0
      vertex 27.5 -48.1656 0
    endloop
  endfacet
  facet normal 0 0 -1
    outer loop
      vertex 5.1 1.55885 0
      vertex 0 47 0
      vertex 5.44377 1.7119 0
    endloop
  endfacet
  facet normal 0 0 -1
    outer loop
      vertex 5.81185 -1.79014 0
      vertex 6.18815 -1.79014 0
      vertex 27.5 -48.1656 0
    endloop
  endfacet
  facet normal 0 0 -1
    outer loop
      vertex 5.44377 1.7119 0
      vertex 0 47 0
      vertex 5.81185 1.79014 0
    endloop
  endfacet
  facet normal 0 0 -1
    outer loop
      vertex 6.18815 -1.79014 0
      vertex 6.55623 -1.7119 0
      vertex 27.5 -48.1656 0
    endloop
  endfacet
  facet normal 0 0 -1
    outer loop
      vertex 5.81185 1.79014 0
      vertex 0 47 0
      vertex 6.18815 1.79014 0
    endloop
  endfacet
  facet normal 0 0 -1
    outer loop
      vertex 6.55623 -1.7119 0
      vertex 6.9 -1.55885 0
      vertex 27.5 -48.1656 0
    endloop
  endfacet
  facet normal 0 0 -1
    outer loop
      vertex 6.18815 1.79014 0
      vertex 0 47 0
      vertex 6.55623 1.7119 0
    endloop
  endfacet
  facet normal 0 0 -1
    outer loop
      vertex 6.9 -1.55885 0
      vertex 7.20443 -1.33766 0
      vertex 27.5 -48.1656 0
    endloop
  endfacet
  facet normal 0 0 -1
    outer loop
      vertex 6.55623 1.7119 0
      vertex 0 47 0
      vertex 6.9 1.55885 0
    endloop
  endfacet
  facet normal 0 0 -1
    outer loop
      vertex 7.20443 -1.33766 0
      vertex 7.45623 -1.05801 0
      vertex 27.5 -48.1656 0
    endloop
  endfacet
  facet normal 0 0 -1
    outer loop
      vertex 6.9 1.55885 0
      vertex 0 47 0
      vertex 7.20443 1.33766 0
    endloop
  endfacet
  facet normal 0 0 -1
    outer loop
      vertex 7.45623 -1.05801 0
      vertex 7.64438 -0.732126 0
      vertex 27.5 -48.1656 0
    endloop
  endfacet
  facet normal 0 0 -1
    outer loop
      vertex 7.20443 1.33766 0
      vertex 0 47 0
      vertex 7.45623 1.05801 0
    endloop
  endfacet
  facet normal 0 0 -1
    outer loop
      vertex 7.64438 -0.732126 0
      vertex 7.76067 -0.374241 0
      vertex 27.5 -48.1656 0
    endloop
  endfacet
  facet normal 0 0 -1
    outer loop
      vertex 7.45623 1.05801 0
      vertex 0 47 0
      vertex 7.64438 0.732126 0
    endloop
  endfacet
  facet normal 0 0 -1
    outer loop
      vertex 7.76067 -0.374241 0
      vertex 7.8 0 0
      vertex 27.5 -48.1656 0
    endloop
  endfacet
  facet normal 0 0 -1
    outer loop
      vertex 7.8 0 0
      vertex 7.76067 0.374241 0
      vertex 27.5 -48.1656 0
    endloop
  endfacet
  facet normal 0 0 -1
    outer loop
      vertex 17 20 0
      vertex 45.8118 54.2099 0
      vertex 46.1882 54.2099 0
    endloop
  endfacet
  facet normal 0 0 -1
    outer loop
      vertex 4.54377 1.05801 0
      vertex 0 47 0
      vertex 4.79556 1.33766 0
    endloop
  endfacet
  facet normal 0 0 -1
    outer loop
      vertex 4.35562 0.732126 0
      vertex 0 47 0
      vertex 4.54377 1.05801 0
    endloop
  endfacet
  facet normal 0 0 -1
    outer loop
      vertex 4.23933 0.374241 0
      vertex 0 47 0
      vertex 4.35562 0.732126 0
    endloop
  endfacet
  facet normal 0 0 -1
    outer loop
      vertex 4.2 0 0
      vertex 0 47 0
      vertex 4.23933 0.374241 0
    endloop
  endfacet
  facet normal 0 0 -1
    outer loop
      vertex 17 -20 0
      vertex 0 47 0
      vertex 17 20 0
    endloop
  endfacet
  facet normal 0 0 -1
    outer loop
      vertex 7.76067 0.374241 0
      vertex 0 47 0
      vertex 17 -20 0
    endloop
  endfacet
  facet normal 0 0 -1
    outer loop
      vertex 7.76067 0.374241 0
      vertex 17 -20 0
      vertex 27.5 -48.1656 0
    endloop
  endfacet
  facet normal 0 0 -1
    outer loop
      vertex 57 20 0
      vertex 78.7667 1.94142 0
      vertex 78.9271 1.76336 0
    endloop
  endfacet
  facet normal 0 0 -1
    outer loop
      vertex 27.5 -48.1656 0
      vertex 57 -20 0
      vertex 79.2406 1.22021 0
    endloop
  endfacet
  facet normal 0 0 -1
    outer loop
      vertex 47.4562 -54.942 0
      vertex 67.5 -62 0
      vertex 47.6444 -55.2679 0
    endloop
  endfacet
  facet normal 0 0 -1
    outer loop
      vertex 4.79556 -1.33766 0
      vertex 27.5 -48.1656 0
      vertex 4.54377 -1.05801 0
    endloop
  endfacet
  facet normal 0 0 -1
    outer loop
      vertex 47.6444 -56.7321 0
      vertex 67.5 -62 0
      vertex 47.4562 -57.058 0
    endloop
  endfacet
  facet normal 0 0 -1
    outer loop
      vertex 47.4562 -57.058 0
      vertex 67.5 -62 0
      vertex 47.2044 -57.3377 0
    endloop
  endfacet
  facet normal 0 0 -1
    outer loop
      vertex 44.7956 -57.3377 0
      vertex 27.5 -62 0
      vertex 44.5438 -57.058 0
    endloop
  endfacet
  facet normal 0 0 -1
    outer loop
      vertex 17 20 0
      vertex 67.5 62 0
      vertex 57 20 0
    endloop
  endfacet
  facet normal 0 0 -1
    outer loop
      vertex 45.1 -57.5588 0
      vertex 27.5 -62 0
      vertex 44.7956 -57.3377 0
    endloop
  endfacet
  facet normal 0 0 -1
    outer loop
      vertex 45.4438 -57.7119 0
      vertex 27.5 -62 0
      vertex 45.1 -57.5588 0
    endloop
  endfacet
  facet normal 0 0 -1
    outer loop
      vertex 45.8118 -57.7901 0
      vertex 27.5 -62 0
      vertex 45.4438 -57.7119 0
    endloop
  endfacet
  facet normal 0 0 -1
    outer loop
      vertex 67.5 -62 0
      vertex 27.5 -62 0
      vertex 45.8118 -57.7901 0
    endloop
  endfacet
  facet normal 0 0 -1
    outer loop
      vertex 46.5562 -57.7119 0
      vertex 67.5 -62 0
      vertex 46.1882 -57.7901 0
    endloop
  endfacet
  facet normal 0 0 -1
    outer loop
      vertex 46.9 -57.5588 0
      vertex 67.5 -62 0
      vertex 46.5562 -57.7119 0
    endloop
  endfacet
  facet normal 0 0 -1
    outer loop
      vertex 47.2044 -57.3377 0
      vertex 67.5 -62 0
      vertex 46.9 -57.5588 0
    endloop
  endfacet
  facet normal 0 0 -1
    outer loop
      vertex 17 20 0
      vertex 46.5562 54.2881 0
      vertex 67.5 62 0
    endloop
  endfacet
  facet normal 0 0 -1
    outer loop
      vertex 47.7607 -56.3742 0
      vertex 67.5 -62 0
      vertex 47.6444 -56.7321 0
    endloop
  endfacet
  facet normal 0 0 -1
    outer loop
      vertex 47.8 -56 0
      vertex 67.5 -62 0
      vertex 47.7607 -56.3742 0
    endloop
  endfacet
  facet normal 0 0 -1
    outer loop
      vertex 47.7607 -55.6258 0
      vertex 67.5 -62 0
      vertex 47.8 -56 0
    endloop
  endfacet
  facet normal 0 0 -1
    outer loop
      vertex 47.6444 -55.2679 0
      vertex 67.5 -62 0
      vertex 47.7607 -55.6258 0
    endloop
  endfacet
  facet normal 0 0 -1
    outer loop
      vertex 67.5 -43.9894 0
      vertex 67.5 -62 0
      vertex 47.4562 -54.942 0
    endloop
  endfacet
  facet normal 0 0 -1
    outer loop
      vertex 67.5 -43.9894 0
      vertex 47.4562 -54.942 0
      vertex 47.2044 -54.6623 0
    endloop
  endfacet
  facet normal 0 0 -1
    outer loop
      vertex 67.5 -43.9894 0
      vertex 47.2044 -54.6623 0
      vertex 46.9 -54.4412 0
    endloop
  endfacet
  facet normal 0 0 -1
    outer loop
      vertex 67.5 -43.9894 0
      vertex 46.9 -54.4412 0
      vertex 46.5562 -54.2881 0
    endloop
  endfacet
  facet normal 0 0 -1
    outer loop
      vertex 67.5 -43.9894 0
      vertex 46.5562 -54.2881 0
      vertex 27.5 -48.1656 0
    endloop
  endfacet
  facet normal 0 0 -1
    outer loop
      vertex 46.5562 -54.2881 0
      vertex 46.1882 -54.2099 0
      vertex 27.5 -48.1656 0
    endloop
  endfacet
  facet normal 0 0 -1
    outer loop
      vertex 45.4438 -54.2881 0
      vertex 27.5 -48.1656 0
      vertex 45.8118 -54.2099 0
    endloop
  endfacet
  facet normal 0 0 -1
    outer loop
      vertex 45.8118 -54.2099 0
      vertex 27.5 -48.1656 0
      vertex 46.1882 -54.2099 0
    endloop
  endfacet
  facet normal 0 0 -1
    outer loop
      vertex 45.1 -54.4412 0
      vertex 27.5 -48.1656 0
      vertex 45.4438 -54.2881 0
    endloop
  endfacet
  facet normal 0 0 -1
    outer loop
      vertex 44.7956 -54.6623 0
      vertex 27.5 -48.1656 0
      vertex 45.1 -54.4412 0
    endloop
  endfacet
  facet normal 0 0 -1
    outer loop
      vertex 44.5438 -54.942 0
      vertex 27.5 -48.1656 0
      vertex 44.7956 -54.6623 0
    endloop
  endfacet
  facet normal 0 0 -1
    outer loop
      vertex 44.3556 -55.2679 0
      vertex 27.5 -48.1656 0
      vertex 44.5438 -54.942 0
    endloop
  endfacet
  facet normal 0 0 -1
    outer loop
      vertex 44.2393 -55.6258 0
      vertex 27.5 -48.1656 0
      vertex 44.3556 -55.2679 0
    endloop
  endfacet
  facet normal 0 0 -1
    outer loop
      vertex 47.7607 55.6258 0
      vertex 67.5 62 0
      vertex 47.6444 55.2679 0
    endloop
  endfacet
  facet normal 0 0 -1
    outer loop
      vertex 45.4438 54.2881 0
      vertex 27.5 48.1656 0
      vertex 45.1 54.4412 0
    endloop
  endfacet
  facet normal 0 0 -1
    outer loop
      vertex 27.5 -48.1656 0
      vertex 44.2393 -55.6258 0
      vertex 44.2 -56 0
    endloop
  endfacet
  facet normal 0 0 -1
    outer loop
      vertex 27.5 48.1656 0
      vertex 27.5 62 0
      vertex 44.2 56 0
    endloop
  endfacet
  facet normal 0 0 -1
    outer loop
      vertex 27.5 48.1656 0
      vertex 44.2 56 0
      vertex 44.2393 55.6258 0
    endloop
  endfacet
  facet normal 0 0 -1
    outer loop
      vertex 27.5 48.1656 0
      vertex 44.2393 55.6258 0
      vertex 44.3556 55.2679 0
    endloop
  endfacet
  facet normal 0 0 -1
    outer loop
      vertex 27.5 48.1656 0
      vertex 44.3556 55.2679 0
      vertex 44.5438 54.942 0
    endloop
  endfacet
  facet normal 0 0 -1
    outer loop
      vertex 27.5 48.1656 0
      vertex 44.5438 54.942 0
      vertex 44.7956 54.6623 0
    endloop
  endfacet
  facet normal 0 0 -1
    outer loop
      vertex 27.5 48.1656 0
      vertex 44.7956 54.6623 0
      vertex 45.1 54.4412 0
    endloop
  endfacet
  facet normal 0 0 -1
    outer loop
      vertex 47.2044 54.6623 0
      vertex 67.5 62 0
      vertex 46.9 54.4412 0
    endloop
  endfacet
  facet normal 0 0 -1
    outer loop
      vertex 47.6444 55.2679 0
      vertex 67.5 62 0
      vertex 47.4562 54.942 0
    endloop
  endfacet
  facet normal 0 0 -1
    outer loop
      vertex 57 20 0
      vertex 67.5 43.9894 0
      vertex 78.7667 1.94142 0
    endloop
  endfacet
  facet normal 0 0 -1
    outer loop
      vertex 47.4562 54.942 0
      vertex 67.5 62 0
      vertex 47.2044 54.6623 0
    endloop
  endfacet
  facet normal 0 0 -1
    outer loop
      vertex 46.1882 -57.7901 0
      vertex 67.5 -62 0
      vertex 45.8118 -57.7901 0
    endloop
  endfacet
  facet normal 0 0 -1
    outer loop
      vertex 46.9 54.4412 0
      vertex 67.5 62 0
      vertex 46.5562 54.2881 0
    endloop
  endfacet
  facet normal 0 0 -1
    outer loop
      vertex 47.8 56 0
      vertex 67.5 62 0
      vertex 47.7607 55.6258 0
    endloop
  endfacet
  facet normal 0 0 -1
    outer loop
      vertex 47.7607 56.3742 0
      vertex 67.5 62 0
      vertex 47.8 56 0
    endloop
  endfacet
  facet normal 0 0 -1
    outer loop
      vertex 47.6444 56.7321 0
      vertex 67.5 62 0
      vertex 47.7607 56.3742 0
    endloop
  endfacet
  facet normal 0 0 -1
    outer loop
      vertex 47.4562 57.058 0
      vertex 67.5 62 0
      vertex 47.6444 56.7321 0
    endloop
  endfacet
  facet normal 0 0 -1
    outer loop
      vertex 45.8118 57.7901 0
      vertex 27.5 62 0
      vertex 46.1882 57.7901 0
    endloop
  endfacet
  facet normal 0 0 -1
    outer loop
      vertex 45.1 57.5588 0
      vertex 27.5 62 0
      vertex 45.4438 57.7119 0
    endloop
  endfacet
  facet normal 0 0 -1
    outer loop
      vertex 47.4562 57.058 0
      vertex 47.2044 57.3377 0
      vertex 67.5 62 0
    endloop
  endfacet
  facet normal 0 0 -1
    outer loop
      vertex 45.4438 57.7119 0
      vertex 27.5 62 0
      vertex 45.8118 57.7901 0
    endloop
  endfacet
  facet normal 0 0 -1
    outer loop
      vertex 47.2044 57.3377 0
      vertex 46.9 57.5588 0
      vertex 67.5 62 0
    endloop
  endfacet
  facet normal 0 0 -1
    outer loop
      vertex 46.1882 57.7901 0
      vertex 27.5 62 0
      vertex 46.5562 57.7119 0
    endloop
  endfacet
  facet normal 0 0 -1
    outer loop
      vertex 46.9 57.5588 0
      vertex 46.5562 57.7119 0
      vertex 67.5 62 0
    endloop
  endfacet
  facet normal 0 0 -1
    outer loop
      vertex 44.7956 57.3377 0
      vertex 27.5 62 0
      vertex 45.1 57.5588 0
    endloop
  endfacet
  facet normal 0 0 -1
    outer loop
      vertex 44.5438 57.058 0
      vertex 27.5 62 0
      vertex 44.7956 57.3377 0
    endloop
  endfacet
  facet normal 0 0 -1
    outer loop
      vertex 44.3556 56.7321 0
      vertex 27.5 62 0
      vertex 44.5438 57.058 0
    endloop
  endfacet
  facet normal 0 0 -1
    outer loop
      vertex 44.2393 56.3742 0
      vertex 27.5 62 0
      vertex 44.3556 56.7321 0
    endloop
  endfacet
  facet normal 0 0 -1
    outer loop
      vertex 44.2 56 0
      vertex 27.5 62 0
      vertex 44.2393 56.3742 0
    endloop
  endfacet
  facet normal 0 0 -1
    outer loop
      vertex 27.5 -48.1656 0
      vertex 44.2 -56 0
      vertex 44.2393 -56.3742 0
    endloop
  endfacet
  facet normal 0 0 -1
    outer loop
      vertex 27.5 -48.1656 0
      vertex 44.2393 -56.3742 0
      vertex 44.3556 -56.7321 0
    endloop
  endfacet
  facet normal 0 0 -1
    outer loop
      vertex 27.5 -48.1656 0
      vertex 44.3556 -56.7321 0
      vertex 44.5438 -57.058 0
    endloop
  endfacet
  facet normal 0 0 -1
    outer loop
      vertex 27.5 -48.1656 0
      vertex 44.5438 -57.058 0
      vertex 27.5 -62 0
    endloop
  endfacet
  facet normal -1 0 0
    outer loop
      vertex 0 -47 0
      vertex 0 -47 3
      vertex 0 47 0
    endloop
  endfacet
  facet normal -1 0 0
    outer loop
      vertex 0 47 0
      vertex 0 -47 3
      vertex 0 47 3
    endloop
  endfacet
  facet normal 0 0 1
    outer loop
      vertex 46.5562 -57.7119 3
      vertex 27.5 -62 3
      vertex 67.5 -62 3
    endloop
  endfacet
  facet normal 0 0 1
    outer loop
      vertex 78.7667 -1.94142 3
      vertex 27.5 -48.1656 3
      vertex 67.5 -43.9894 3
    endloop
  endfacet
  facet normal 0 0 1
    outer loop
      vertex 17 20 3
      vertex 46.5562 54.2881 3
      vertex 27.5 48.1656 3
    endloop
  endfacet
  facet normal 0 0 1
    outer loop
      vertex 78.9271 -1.76336 3
      vertex 27.5 -48.1656 3
      vertex 78.7667 -1.94142 3
    endloop
  endfacet
  facet normal 0 0 1
    outer loop
      vertex 79.2406 -1.22021 3
      vertex 27.5 -48.1656 3
      vertex 78.9271 -1.76336 3
    endloop
  endfacet
  facet normal 0 0 1
    outer loop
      vertex 79.4344 -0.623735 3
      vertex 27.5 -48.1656 3
      vertex 79.2406 -1.22021 3
    endloop
  endfacet
  facet normal 0 0 1
    outer loop
      vertex 79.5 0 3
      vertex 27.5 -48.1656 3
      vertex 79.4344 -0.623735 3
    endloop
  endfacet
  facet normal 0 0 1
    outer loop
      vertex 79.4344 0.623735 3
      vertex 27.5 -48.1656 3
      vertex 79.5 0 3
    endloop
  endfacet
  facet normal 0 0 1
    outer loop
      vertex 79.2406 1.22021 3
      vertex 27.5 -48.1656 3
      vertex 79.4344 0.623735 3
    endloop
  endfacet
  facet normal 0 0 1
    outer loop
      vertex 57 -20 3
      vertex 27.5 -48.1656 3
      vertex 79.2406 1.22021 3
    endloop
  endfacet
  facet normal 0 0 1
    outer loop
      vertex 57 -20 3
      vertex 17 -20 3
      vertex 27.5 -48.1656 3
    endloop
  endfacet
  facet normal 0 0 1
    outer loop
      vertex 57 20 3
      vertex 78.7667 1.94142 3
      vertex 67.5 43.9894 3
    endloop
  endfacet
  facet normal 0 0 1
    outer loop
      vertex 46.1882 54.2099 3
      vertex 45.8118 54.2099 3
      vertex 27.5 48.1656 3
    endloop
  endfacet
  facet normal 0 0 1
    outer loop
      vertex 0 47 3
      vertex 0 -47 3
      vertex 4.2 0 3
    endloop
  endfacet
  facet normal 0 0 1
    outer loop
      vertex 0 47 3
      vertex 4.2 0 3
      vertex 4.23933 0.374241 3
    endloop
  endfacet
  facet normal 0 0 1
    outer loop
      vertex 0 47 3
      vertex 4.23933 0.374241 3
      vertex 4.35562 0.732126 3
    endloop
  endfacet
  facet normal 0 0 1
    outer loop
      vertex 0 47 3
      vertex 4.35562 0.732126 3
      vertex 4.54377 1.05801 3
    endloop
  endfacet
  facet normal 0 0 1
    outer loop
      vertex 0 47 3
      vertex 4.54377 1.05801 3
      vertex 4.79556 1.33766 3
    endloop
  endfacet
  facet normal 0 0 1
    outer loop
      vertex 0 47 3
      vertex 4.79556 1.33766 3
      vertex 5.1 1.55885 3
    endloop
  endfacet
  facet normal 0 0 1
    outer loop
      vertex 0 47 3
      vertex 5.1 1.55885 3
      vertex 5.44377 1.7119 3
    endloop
  endfacet
  facet normal 0 0 1
    outer loop
      vertex 0 47 3
      vertex 5.44377 1.7119 3
      vertex 5.81185 1.79014 3
    endloop
  endfacet
  facet normal 0 0 1
    outer loop
      vertex 0 47 3
      vertex 5.81185 1.79014 3
      vertex 6.18815 1.79014 3
    endloop
  endfacet
  facet normal 0 0 1
    outer loop
      vertex 0 47 3
      vertex 6.18815 1.79014 3
      vertex 6.55623 1.7119 3
    endloop
  endfacet
  facet normal 0 0 1
    outer loop
      vertex 0 47 3
      vertex 6.55623 1.7119 3
      vertex 6.9 1.55885 3
    endloop
  endfacet
  facet normal 0 0 1
    outer loop
      vertex 0 47 3
      vertex 6.9 1.55885 3
      vertex 7.20443 1.33766 3
    endloop
  endfacet
  facet normal 0 0 1
    outer loop
      vertex 17 20 3
      vertex 67.5 62 3
      vertex 47.4562 54.942 3
    endloop
  endfacet
  facet normal 0 0 1
    outer loop
      vertex 0 47 3
      vertex 7.20443 1.33766 3
      vertex 7.45623 1.05801 3
    endloop
  endfacet
  facet normal 0 0 1
    outer loop
      vertex 17 20 3
      vertex 47.2044 54.6623 3
      vertex 46.9 54.4412 3
    endloop
  endfacet
  facet normal 0 0 1
    outer loop
      vertex 0 47 3
      vertex 7.45623 1.05801 3
      vertex 7.64438 0.732126 3
    endloop
  endfacet
  facet normal 0 0 1
    outer loop
      vertex 17 20 3
      vertex 46.9 54.4412 3
      vertex 46.5562 54.2881 3
    endloop
  endfacet
  facet normal 0 0 1
    outer loop
      vertex 0 47 3
      vertex 7.64438 0.732126 3
      vertex 7.76067 0.374241 3
    endloop
  endfacet
  facet normal 0 0 1
    outer loop
      vertex 17 20 3
      vertex 47.4562 54.942 3
      vertex 47.2044 54.6623 3
    endloop
  endfacet
  facet normal 0 0 1
    outer loop
      vertex 17 20 3
      vertex 57 20 3
      vertex 67.5 62 3
    endloop
  endfacet
  facet normal 0 0 1
    outer loop
      vertex 4.35562 -0.732126 3
      vertex 0 -47 3
      vertex 4.54377 -1.05801 3
    endloop
  endfacet
  facet normal 0 0 1
    outer loop
      vertex 4.23933 -0.374241 3
      vertex 0 -47 3
      vertex 4.35562 -0.732126 3
    endloop
  endfacet
  facet normal 0 0 1
    outer loop
      vertex 4.2 0 3
      vertex 0 -47 3
      vertex 4.23933 -0.374241 3
    endloop
  endfacet
  facet normal 0 0 1
    outer loop
      vertex 0 47 3
      vertex 17 20 3
      vertex 27.5 48.1656 3
    endloop
  endfacet
  facet normal 0 0 1
    outer loop
      vertex 67.5 62 3
      vertex 57 20 3
      vertex 67.5 43.9894 3
    endloop
  endfacet
  facet normal 0 0 1
    outer loop
      vertex 45.1 -54.4412 3
      vertex 45.4438 -54.2881 3
      vertex 27.5 -48.1656 3
    endloop
  endfacet
  facet normal 0 0 1
    outer loop
      vertex 78.9271 1.76336 3
      vertex 57 -20 3
      vertex 79.2406 1.22021 3
    endloop
  endfacet
  facet normal 0 0 1
    outer loop
      vertex 17 -20 3
      vertex 17 20 3
      vertex 0 47 3
    endloop
  endfacet
  facet normal 0 0 1
    outer loop
      vertex 46.1882 -57.7901 3
      vertex 45.8118 -57.7901 3
      vertex 27.5 -62 3
    endloop
  endfacet
  facet normal 0 0 1
    outer loop
      vertex 27.5 -48.1656 3
      vertex 27.5 -62 3
      vertex 44.2 -56 3
    endloop
  endfacet
  facet normal 0 0 1
    outer loop
      vertex 47.6444 -56.7321 3
      vertex 47.4562 -57.058 3
      vertex 67.5 -62 3
    endloop
  endfacet
  facet normal 0 0 1
    outer loop
      vertex 27.5 -48.1656 3
      vertex 44.2 -56 3
      vertex 44.2393 -55.6258 3
    endloop
  endfacet
  facet normal 0 0 1
    outer loop
      vertex 47.7607 -56.3742 3
      vertex 47.6444 -56.7321 3
      vertex 67.5 -62 3
    endloop
  endfacet
  facet normal 0 0 1
    outer loop
      vertex 27.5 -48.1656 3
      vertex 44.2393 -55.6258 3
      vertex 44.3556 -55.2679 3
    endloop
  endfacet
  facet normal 0 0 1
    outer loop
      vertex 47.8 -56 3
      vertex 47.7607 -56.3742 3
      vertex 67.5 -62 3
    endloop
  endfacet
  facet normal 0 0 1
    outer loop
      vertex 27.5 -48.1656 3
      vertex 44.3556 -55.2679 3
      vertex 44.5438 -54.942 3
    endloop
  endfacet
  facet normal 0 0 1
    outer loop
      vertex 47.7607 -55.6258 3
      vertex 47.8 -56 3
      vertex 67.5 -62 3
    endloop
  endfacet
  facet normal 0 0 1
    outer loop
      vertex 27.5 -48.1656 3
      vertex 44.5438 -54.942 3
      vertex 44.7956 -54.6623 3
    endloop
  endfacet
  facet normal 0 0 1
    outer loop
      vertex 46.5562 57.7119 3
      vertex 46.9 57.5588 3
      vertex 67.5 62 3
    endloop
  endfacet
  facet normal 0 0 1
    outer loop
      vertex 27.5 -48.1656 3
      vertex 44.7956 -54.6623 3
      vertex 45.1 -54.4412 3
    endloop
  endfacet
  facet normal 0 0 1
    outer loop
      vertex 67.5 -43.9894 3
      vertex 27.5 -48.1656 3
      vertex 45.4438 -54.2881 3
    endloop
  endfacet
  facet normal 0 0 1
    outer loop
      vertex 47.4562 -54.942 3
      vertex 47.6444 -55.2679 3
      vertex 67.5 -62 3
    endloop
  endfacet
  facet normal 0 0 1
    outer loop
      vertex 67.5 -43.9894 3
      vertex 45.4438 -54.2881 3
      vertex 45.8118 -54.2099 3
    endloop
  endfacet
  facet normal 0 0 1
    outer loop
      vertex 47.2044 -54.6623 3
      vertex 47.4562 -54.942 3
      vertex 67.5 -62 3
    endloop
  endfacet
  facet normal 0 0 1
    outer loop
      vertex 67.5 -43.9894 3
      vertex 45.8118 -54.2099 3
      vertex 46.1882 -54.2099 3
    endloop
  endfacet
  facet normal 0 0 1
    outer loop
      vertex 67.5 -43.9894 3
      vertex 46.5562 -54.2881 3
      vertex 67.5 -62 3
    endloop
  endfacet
  facet normal 0 0 1
    outer loop
      vertex 67.5 -43.9894 3
      vertex 46.1882 -54.2099 3
      vertex 46.5562 -54.2881 3
    endloop
  endfacet
  facet normal 0 0 1
    outer loop
      vertex 46.5562 -54.2881 3
      vertex 46.9 -54.4412 3
      vertex 67.5 -62 3
    endloop
  endfacet
  facet normal 0 0 1
    outer loop
      vertex 46.9 -54.4412 3
      vertex 47.2044 -54.6623 3
      vertex 67.5 -62 3
    endloop
  endfacet
  facet normal 0 0 1
    outer loop
      vertex 47.6444 -55.2679 3
      vertex 47.7607 -55.6258 3
      vertex 67.5 -62 3
    endloop
  endfacet
  facet normal 0 0 1
    outer loop
      vertex 47.4562 -57.058 3
      vertex 47.2044 -57.3377 3
      vertex 67.5 -62 3
    endloop
  endfacet
  facet normal 0 0 1
    outer loop
      vertex 47.2044 -57.3377 3
      vertex 46.9 -57.5588 3
      vertex 67.5 -62 3
    endloop
  endfacet
  facet normal 0 0 1
    outer loop
      vertex 46.9 -57.5588 3
      vertex 46.5562 -57.7119 3
      vertex 67.5 -62 3
    endloop
  endfacet
  facet normal 0 0 1
    outer loop
      vertex 46.1882 -57.7901 3
      vertex 27.5 -62 3
      vertex 46.5562 -57.7119 3
    endloop
  endfacet
  facet normal 0 0 1
    outer loop
      vertex 45.8118 -57.7901 3
      vertex 45.4438 -57.7119 3
      vertex 27.5 -62 3
    endloop
  endfacet
  facet normal 0 0 1
    outer loop
      vertex 45.4438 -57.7119 3
      vertex 45.1 -57.5588 3
      vertex 27.5 -62 3
    endloop
  endfacet
  facet normal 0 0 1
    outer loop
      vertex 45.8118 57.7901 3
      vertex 46.1882 57.7901 3
      vertex 67.5 62 3
    endloop
  endfacet
  facet normal 0 0 1
    outer loop
      vertex 44.7956 -57.3377 3
      vertex 27.5 -62 3
      vertex 45.1 -57.5588 3
    endloop
  endfacet
  facet normal 0 0 1
    outer loop
      vertex 44.5438 -57.058 3
      vertex 27.5 -62 3
      vertex 44.7956 -57.3377 3
    endloop
  endfacet
  facet normal 0 0 1
    outer loop
      vertex 44.3556 -56.7321 3
      vertex 27.5 -62 3
      vertex 44.5438 -57.058 3
    endloop
  endfacet
  facet normal 0 0 1
    outer loop
      vertex 44.2393 -56.3742 3
      vertex 27.5 -62 3
      vertex 44.3556 -56.7321 3
    endloop
  endfacet
  facet normal 0 0 1
    outer loop
      vertex 44.2 -56 3
      vertex 27.5 -62 3
      vertex 44.2393 -56.3742 3
    endloop
  endfacet
  facet normal 0 0 1
    outer loop
      vertex 27.5 62 3
      vertex 27.5 48.1656 3
      vertex 44.2 56 3
    endloop
  endfacet
  facet normal 0 0 1
    outer loop
      vertex 47.4562 57.058 3
      vertex 47.6444 56.7321 3
      vertex 67.5 62 3
    endloop
  endfacet
  facet normal 0 0 1
    outer loop
      vertex 27.5 62 3
      vertex 44.2 56 3
      vertex 44.2393 56.3742 3
    endloop
  endfacet
  facet normal 0 0 1
    outer loop
      vertex 47.2044 57.3377 3
      vertex 47.4562 57.058 3
      vertex 67.5 62 3
    endloop
  endfacet
  facet normal 0 0 1
    outer loop
      vertex 27.5 62 3
      vertex 44.2393 56.3742 3
      vertex 44.3556 56.7321 3
    endloop
  endfacet
  facet normal 0 0 1
    outer loop
      vertex 46.9 57.5588 3
      vertex 47.2044 57.3377 3
      vertex 67.5 62 3
    endloop
  endfacet
  facet normal 0 0 1
    outer loop
      vertex 27.5 62 3
      vertex 44.3556 56.7321 3
      vertex 44.5438 57.058 3
    endloop
  endfacet
  facet normal 0 0 1
    outer loop
      vertex 47.6444 55.2679 3
      vertex 47.4562 54.942 3
      vertex 67.5 62 3
    endloop
  endfacet
  facet normal 0 0 1
    outer loop
      vertex 27.5 62 3
      vertex 44.5438 57.058 3
      vertex 44.7956 57.3377 3
    endloop
  endfacet
  facet normal 0 0 1
    outer loop
      vertex 27.5 62 3
      vertex 44.7956 57.3377 3
      vertex 45.1 57.5588 3
    endloop
  endfacet
  facet normal 0 0 1
    outer loop
      vertex 46.1882 57.7901 3
      vertex 46.5562 57.7119 3
      vertex 67.5 62 3
    endloop
  endfacet
  facet normal 0 0 1
    outer loop
      vertex 27.5 62 3
      vertex 45.1 57.5588 3
      vertex 45.4438 57.7119 3
    endloop
  endfacet
  facet normal 0 0 1
    outer loop
      vertex 27.5 62 3
      vertex 45.8118 57.7901 3
      vertex 67.5 62 3
    endloop
  endfacet
  facet normal 0 0 1
    outer loop
      vertex 27.5 62 3
      vertex 45.4438 57.7119 3
      vertex 45.8118 57.7901 3
    endloop
  endfacet
  facet normal 0 0 1
    outer loop
      vertex 45.1 54.4412 3
      vertex 44.7956 54.6623 3
      vertex 27.5 48.1656 3
    endloop
  endfacet
  facet normal 0 0 1
    outer loop
      vertex 47.6444 56.7321 3
      vertex 47.7607 56.3742 3
      vertex 67.5 62 3
    endloop
  endfacet
  facet normal 0 0 1
    outer loop
      vertex 47.7607 56.3742 3
      vertex 47.8 56 3
      vertex 67.5 62 3
    endloop
  endfacet
  facet normal 0 0 1
    outer loop
      vertex 47.8 56 3
      vertex 47.7607 55.6258 3
      vertex 67.5 62 3
    endloop
  endfacet
  facet normal 0 0 1
    outer loop
      vertex 47.7607 55.6258 3
      vertex 47.6444 55.2679 3
      vertex 67.5 62 3
    endloop
  endfacet
  facet normal 0 0 1
    outer loop
      vertex 57 20 3
      vertex 78.9271 1.76336 3
      vertex 78.7667 1.94142 3
    endloop
  endfacet
  facet normal 0 0 1
    outer loop
      vertex 57 20 3
      vertex 57 -20 3
      vertex 78.9271 1.76336 3
    endloop
  endfacet
  facet normal 0 0 1
    outer loop
      vertex 45.8118 54.2099 3
      vertex 45.4438 54.2881 3
      vertex 27.5 48.1656 3
    endloop
  endfacet
  facet normal 0 0 1
    outer loop
      vertex 27.5 48.1656 3
      vertex 46.5562 54.2881 3
      vertex 46.1882 54.2099 3
    endloop
  endfacet
  facet normal 0 0 1
    outer loop
      vertex 45.4438 54.2881 3
      vertex 45.1 54.4412 3
      vertex 27.5 48.1656 3
    endloop
  endfacet
  facet normal 0 0 1
    outer loop
      vertex 44.7956 54.6623 3
      vertex 44.5438 54.942 3
      vertex 27.5 48.1656 3
    endloop
  endfacet
  facet normal 0 0 1
    outer loop
      vertex 44.5438 54.942 3
      vertex 44.3556 55.2679 3
      vertex 27.5 48.1656 3
    endloop
  endfacet
  facet normal 0 0 1
    outer loop
      vertex 44.3556 55.2679 3
      vertex 44.2393 55.6258 3
      vertex 27.5 48.1656 3
    endloop
  endfacet
  facet normal 0 0 1
    outer loop
      vertex 44.2 56 3
      vertex 27.5 48.1656 3
      vertex 44.2393 55.6258 3
    endloop
  endfacet
  facet normal 0 0 1
    outer loop
      vertex 0 -47 3
      vertex 4.79556 -1.33766 3
      vertex 4.54377 -1.05801 3
    endloop
  endfacet
  facet normal 0 0 1
    outer loop
      vertex 0 -47 3
      vertex 5.1 -1.55885 3
      vertex 4.79556 -1.33766 3
    endloop
  endfacet
  facet normal 0 0 1
    outer loop
      vertex 0 -47 3
      vertex 5.44377 -1.7119 3
      vertex 5.1 -1.55885 3
    endloop
  endfacet
  facet normal 0 0 1
    outer loop
      vertex 0 -47 3
      vertex 5.81185 -1.79014 3
      vertex 5.44377 -1.7119 3
    endloop
  endfacet
  facet normal 0 0 1
    outer loop
      vertex 0 -47 3
      vertex 6.18815 -1.79014 3
      vertex 5.81185 -1.79014 3
    endloop
  endfacet
  facet normal 0 0 1
    outer loop
      vertex 0 -47 3
      vertex 6.55623 -1.7119 3
      vertex 6.18815 -1.79014 3
    endloop
  endfacet
  facet normal 0 0 1
    outer loop
      vertex 0 -47 3
      vertex 6.9 -1.55885 3
      vertex 6.55623 -1.7119 3
    endloop
  endfacet
  facet normal 0 0 1
    outer loop
      vertex 0 -47 3
      vertex 7.20443 -1.33766 3
      vertex 6.9 -1.55885 3
    endloop
  endfacet
  facet normal 0 0 1
    outer loop
      vertex 0 -47 3
      vertex 7.45623 -1.05801 3
      vertex 7.20443 -1.33766 3
    endloop
  endfacet
  facet normal 0 0 1
    outer loop
      vertex 0 -47 3
      vertex 7.64438 -0.732126 3
      vertex 7.45623 -1.05801 3
    endloop
  endfacet
  facet normal 0 0 1
    outer loop
      vertex 0 -47 3
      vertex 7.76067 -0.374241 3
      vertex 7.64438 -0.732126 3
    endloop
  endfacet
  facet normal 0 0 1
    outer loop
      vertex 7.76067 0.374241 3
      vertex 17 -20 3
      vertex 0 47 3
    endloop
  endfacet
  facet normal 0 0 1
    outer loop
      vertex 7.8 0 3
      vertex 17 -20 3
      vertex 7.76067 0.374241 3
    endloop
  endfacet
  facet normal 0 0 1
    outer loop
      vertex 7.76067 -0.374241 3
      vertex 17 -20 3
      vertex 7.8 0 3
    endloop
  endfacet
  facet normal 0 0 1
    outer loop
      vertex 0 -47 3
      vertex 17 -20 3
      vertex 7.76067 -0.374241 3
    endloop
  endfacet
  facet normal 0 0 1
    outer loop
      vertex 0 -47 3
      vertex 27.5 -48.1656 3
      vertex 17 -20 3
    endloop
  endfacet
  facet normal -1 0 0
    outer loop
      vertex 27.5 -62 0
      vertex 27.5 -62 3
      vertex 27.5 -48.1656 0
    endloop
  endfacet
  facet normal -1 0 0
    outer loop
      vertex 27.5 -48.1656 0
      vertex 27.5 -62 3
      vertex 27.5 -48.1656 3
    endloop
  endfacet
  facet normal 0 -1 0
    outer loop
      vertex 27.5 -62 3
      vertex 27.5 -62 0
      vertex 67.5 -62 0
    endloop
  endfacet
  facet normal 0 -1 0
    outer loop
      vertex 67.5 -62 3
      vertex 27.5 -62 3
      vertex 67.5 -62 0
    endloop
  endfacet
  facet normal 1 0 0
    outer loop
      vertex 67.5 -62 3
      vertex 67.5 -62 0
      vertex 67.5 -43.9894 0
    endloop
  endfacet
  facet normal 1 0 0
    outer loop
      vertex 67.5 -43.9894 3
      vertex 67.5 -62 3
      vertex 67.5 -43.9894 0
    endloop
  endfacet
  facet normal 0.965926 -0.258819 0
    outer loop
      vertex 67.5 -43.9894 3
      vertex 67.5 -43.9894 0
      vertex 78.7667 -1.94142 0
    endloop
  endfacet
  facet normal 0.965926 -0.258819 0
    outer loop
      vertex 78.7667 -1.94142 3
      vertex 67.5 -43.9894 3
      vertex 78.7667 -1.94142 0
    endloop
  endfacet
  facet normal 0.743144 -0.669131 0
    outer loop
      vertex 78.7667 -1.94142 3
      vertex 78.7667 -1.94142 0
      vertex 78.9271 -1.76336 0
    endloop
  endfacet
  facet normal 0.743144 -0.669131 0
    outer loop
      vertex 78.9271 -1.76336 3
      vertex 78.7667 -1.94142 3
      vertex 78.9271 -1.76336 0
    endloop
  endfacet
  facet normal 0.866026 -0.499999 0
    outer loop
      vertex 78.9271 -1.76336 3
      vertex 78.9271 -1.76336 0
      vertex 79.2406 -1.22021 0
    endloop
  endfacet
  facet normal 0.866026 -0.499999 0
    outer loop
      vertex 79.2406 -1.22021 3
      vertex 78.9271 -1.76336 3
      vertex 79.2406 -1.22021 0
    endloop
  endfacet
  facet normal 0.951056 -0.309018 0
    outer loop
      vertex 79.2406 -1.22021 3
      vertex 79.2406 -1.22021 0
      vertex 79.4344 -0.623735 0
    endloop
  endfacet
  facet normal 0.951056 -0.309018 0
    outer loop
      vertex 79.4344 -0.623735 3
      vertex 79.2406 -1.22021 3
      vertex 79.4344 -0.623735 0
    endloop
  endfacet
  facet normal 0.994522 -0.104528 0
    outer loop
      vertex 79.4344 -0.623735 3
      vertex 79.4344 -0.623735 0
      vertex 79.5 0 0
    endloop
  endfacet
  facet normal 0.994522 -0.104528 0
    outer loop
      vertex 79.5 0 3
      vertex 79.4344 -0.623735 3
      vertex 79.5 0 0
    endloop
  endfacet
  facet normal 0.994522 0.104528 0
    outer loop
      vertex 79.5 0 0
      vertex 79.4344 0.623735 0
      vertex 79.4344 0.623735 3
    endloop
  endfacet
  facet normal 0.994522 0.104528 0
    outer loop
      vertex 79.5 0 3
      vertex 79.5 0 0
      vertex 79.4344 0.623735 3
    endloop
  endfacet
  facet normal 0.951056 0.309018 0
    outer loop
      vertex 79.4344 0.623735 0
      vertex 79.2406 1.22021 0
      vertex 79.2406 1.22021 3
    endloop
  endfacet
  facet normal 0.951056 0.309018 0
    outer loop
      vertex 79.4344 0.623735 3
      vertex 79.4344 0.623735 0
      vertex 79.2406 1.22021 3
    endloop
  endfacet
  facet normal 0.866026 0.499999 0
    outer loop
      vertex 79.2406 1.22021 0
      vertex 78.9271 1.76336 0
      vertex 78.9271 1.76336 3
    endloop
  endfacet
  facet normal 0.866026 0.499999 0
    outer loop
      vertex 79.2406 1.22021 3
      vertex 79.2406 1.22021 0
      vertex 78.9271 1.76336 3
    endloop
  endfacet
  facet normal 0.743144 0.669131 0
    outer loop
      vertex 78.9271 1.76336 0
      vertex 78.7667 1.94142 0
      vertex 78.7667 1.94142 3
    endloop
  endfacet
  facet normal 0.743144 0.669131 0
    outer loop
      vertex 78.9271 1.76336 3
      vertex 78.9271 1.76336 0
      vertex 78.7667 1.94142 3
    endloop
  endfacet
  facet normal 0.965926 0.258819 0
    outer loop
      vertex 78.7667 1.94142 0
      vertex 67.5 43.9894 0
      vertex 67.5 43.9894 3
    endloop
  endfacet
  facet normal 0.965926 0.258819 0
    outer loop
      vertex 78.7667 1.94142 3
      vertex 78.7667 1.94142 0
      vertex 67.5 43.9894 3
    endloop
  endfacet
  facet normal 1 0 0
    outer loop
      vertex 67.5 43.9894 3
      vertex 67.5 43.9894 0
      vertex 67.5 62 0
    endloop
  endfacet
  facet normal 1 0 0
    outer loop
      vertex 67.5 62 3
      vertex 67.5 43.9894 3
      vertex 67.5 62 0
    endloop
  endfacet
  facet normal 0 1 0
    outer loop
      vertex 27.5 62 0
      vertex 27.5 62 3
      vertex 67.5 62 0
    endloop
  endfacet
  facet normal 0 1 0
    outer loop
      vertex 67.5 62 0
      vertex 27.5 62 3
      vertex 67.5 62 3
    endloop
  endfacet
  facet normal -1 0 0
    outer loop
      vertex 27.5 48.1656 0
      vertex 27.5 48.1656 3
      vertex 27.5 62 0
    endloop
  endfacet
  facet normal -1 0 0
    outer loop
      vertex 27.5 62 0
      vertex 27.5 48.1656 3
      vertex 27.5 62 3
    endloop
  endfacet
  facet normal -0.0423491 0.999103 0
    outer loop
      vertex 0 47 0
      vertex 0 47 3
      vertex 27.5 48.1656 0
    endloop
  endfacet
  facet normal -0.0423491 0.999103 0
    outer loop
      vertex 27.5 48.1656 0
      vertex 0 47 3
      vertex 27.5 48.1656 3
    endloop
  endfacet
  facet normal 0.994522 -0.104528 0
    outer loop
      vertex 4.23933 0.374241 0
      vertex 4.23933 0.374241 3
      vertex 4.2 0 3
    endloop
  endfacet
  facet normal 0.994522 -0.104528 0
    outer loop
      vertex 4.2 0 0
      vertex 4.23933 0.374241 0
      vertex 4.2 0 3
    endloop
  endfacet
  facet normal 0.994522 0.104528 0
    outer loop
      vertex 4.2 0 3
      vertex 4.23933 -0.374241 3
      vertex 4.23933 -0.374241 0
    endloop
  endfacet
  facet normal 0.994522 0.104528 0
    outer loop
      vertex 4.2 0 0
      vertex 4.2 0 3
      vertex 4.23933 -0.374241 0
    endloop
  endfacet
  facet normal 0.951056 -0.309017 0
    outer loop
      vertex 4.35562 0.732126 0
      vertex 4.35562 0.732126 3
      vertex 4.23933 0.374241 3
    endloop
  endfacet
  facet normal 0.951056 -0.309017 0
    outer loop
      vertex 4.23933 0.374241 0
      vertex 4.35562 0.732126 0
      vertex 4.23933 0.374241 3
    endloop
  endfacet
  facet normal 0.866025 -0.5 0
    outer loop
      vertex 4.54377 1.05801 0
      vertex 4.54377 1.05801 3
      vertex 4.35562 0.732126 3
    endloop
  endfacet
  facet normal 0.866025 -0.5 0
    outer loop
      vertex 4.35562 0.732126 0
      vertex 4.54377 1.05801 0
      vertex 4.35562 0.732126 3
    endloop
  endfacet
  facet normal 0.743145 -0.66913 0
    outer loop
      vertex 4.79556 1.33766 0
      vertex 4.79556 1.33766 3
      vertex 4.54377 1.05801 3
    endloop
  endfacet
  facet normal 0.743145 -0.66913 0
    outer loop
      vertex 4.54377 1.05801 0
      vertex 4.79556 1.33766 0
      vertex 4.54377 1.05801 3
    endloop
  endfacet
  facet normal 0.587785 -0.809017 0
    outer loop
      vertex 5.1 1.55885 0
      vertex 5.1 1.55885 3
      vertex 4.79556 1.33766 3
    endloop
  endfacet
  facet normal 0.587785 -0.809017 0
    outer loop
      vertex 4.79556 1.33766 0
      vertex 5.1 1.55885 0
      vertex 4.79556 1.33766 3
    endloop
  endfacet
  facet normal 0.406737 -0.913545 0
    outer loop
      vertex 5.44377 1.7119 0
      vertex 5.44377 1.7119 3
      vertex 5.1 1.55885 3
    endloop
  endfacet
  facet normal 0.406737 -0.913545 0
    outer loop
      vertex 5.1 1.55885 0
      vertex 5.44377 1.7119 0
      vertex 5.1 1.55885 3
    endloop
  endfacet
  facet normal 0.20791 -0.978148 0
    outer loop
      vertex 5.81185 1.79014 0
      vertex 5.81185 1.79014 3
      vertex 5.44377 1.7119 3
    endloop
  endfacet
  facet normal 0.20791 -0.978148 0
    outer loop
      vertex 5.44377 1.7119 0
      vertex 5.81185 1.79014 0
      vertex 5.44377 1.7119 3
    endloop
  endfacet
  facet normal 0 -1 0
    outer loop
      vertex 6.18815 1.79014 0
      vertex 6.18815 1.79014 3
      vertex 5.81185 1.79014 3
    endloop
  endfacet
  facet normal 0 -1 0
    outer loop
      vertex 5.81185 1.79014 0
      vertex 6.18815 1.79014 0
      vertex 5.81185 1.79014 3
    endloop
  endfacet
  facet normal -0.20791 -0.978148 0
    outer loop
      vertex 6.55623 1.7119 0
      vertex 6.55623 1.7119 3
      vertex 6.18815 1.79014 3
    endloop
  endfacet
  facet normal -0.20791 -0.978148 0
    outer loop
      vertex 6.18815 1.79014 0
      vertex 6.55623 1.7119 0
      vertex 6.18815 1.79014 3
    endloop
  endfacet
  facet normal -0.406737 -0.913545 0
    outer loop
      vertex 6.9 1.55885 0
      vertex 6.9 1.55885 3
      vertex 6.55623 1.7119 3
    endloop
  endfacet
  facet normal -0.406737 -0.913545 0
    outer loop
      vertex 6.55623 1.7119 0
      vertex 6.9 1.55885 0
      vertex 6.55623 1.7119 3
    endloop
  endfacet
  facet normal -0.587785 -0.809017 0
    outer loop
      vertex 7.20443 1.33766 0
      vertex 7.20443 1.33766 3
      vertex 6.9 1.55885 3
    endloop
  endfacet
  facet normal -0.587785 -0.809017 0
    outer loop
      vertex 6.9 1.55885 0
      vertex 7.20443 1.33766 0
      vertex 6.9 1.55885 3
    endloop
  endfacet
  facet normal -0.743145 -0.66913 0
    outer loop
      vertex 7.45623 1.05801 3
      vertex 7.20443 1.33766 3
      vertex 7.45623 1.05801 0
    endloop
  endfacet
  facet normal -0.743145 -0.66913 0
    outer loop
      vertex 7.45623 1.05801 0
      vertex 7.20443 1.33766 3
      vertex 7.20443 1.33766 0
    endloop
  endfacet
  facet normal -0.866025 -0.5 0
    outer loop
      vertex 7.64438 0.732126 3
      vertex 7.45623 1.05801 3
      vertex 7.64438 0.732126 0
    endloop
  endfacet
  facet normal -0.866025 -0.5 0
    outer loop
      vertex 7.64438 0.732126 0
      vertex 7.45623 1.05801 3
      vertex 7.45623 1.05801 0
    endloop
  endfacet
  facet normal -0.951056 -0.309017 0
    outer loop
      vertex 7.76067 0.374241 3
      vertex 7.64438 0.732126 3
      vertex 7.76067 0.374241 0
    endloop
  endfacet
  facet normal -0.951056 -0.309017 0
    outer loop
      vertex 7.76067 0.374241 0
      vertex 7.64438 0.732126 3
      vertex 7.64438 0.732126 0
    endloop
  endfacet
  facet normal -0.994522 -0.104528 0
    outer loop
      vertex 7.8 0 3
      vertex 7.76067 0.374241 3
      vertex 7.8 0 0
    endloop
  endfacet
  facet normal -0.994522 -0.104528 0
    outer loop
      vertex 7.8 0 0
      vertex 7.76067 0.374241 3
      vertex 7.76067 0.374241 0
    endloop
  endfacet
  facet normal -0.994522 0.104528 0
    outer loop
      vertex 7.8 0 3
      vertex 7.8 0 0
      vertex 7.76067 -0.374241 3
    endloop
  endfacet
  facet normal -0.994522 0.104528 0
    outer loop
      vertex 7.76067 -0.374241 3
      vertex 7.8 0 0
      vertex 7.76067 -0.374241 0
    endloop
  endfacet
  facet normal -0.951056 0.309017 0
    outer loop
      vertex 7.76067 -0.374241 3
      vertex 7.76067 -0.374241 0
      vertex 7.64438 -0.732126 3
    endloop
  endfacet
  facet normal -0.951056 0.309017 0
    outer loop
      vertex 7.64438 -0.732126 3
      vertex 7.76067 -0.374241 0
      vertex 7.64438 -0.732126 0
    endloop
  endfacet
  facet normal -0.866025 0.5 0
    outer loop
      vertex 7.64438 -0.732126 3
      vertex 7.64438 -0.732126 0
      vertex 7.45623 -1.05801 3
    endloop
  endfacet
  facet normal -0.866025 0.5 0
    outer loop
      vertex 7.45623 -1.05801 3
      vertex 7.64438 -0.732126 0
      vertex 7.45623 -1.05801 0
    endloop
  endfacet
  facet normal -0.743145 0.66913 0
    outer loop
      vertex 7.45623 -1.05801 3
      vertex 7.45623 -1.05801 0
      vertex 7.20443 -1.33766 3
    endloop
  endfacet
  facet normal -0.743145 0.66913 0
    outer loop
      vertex 7.20443 -1.33766 3
      vertex 7.45623 -1.05801 0
      vertex 7.20443 -1.33766 0
    endloop
  endfacet
  facet normal -0.587785 0.809017 0
    outer loop
      vertex 7.20443 -1.33766 3
      vertex 7.20443 -1.33766 0
      vertex 6.9 -1.55885 3
    endloop
  endfacet
  facet normal -0.587785 0.809017 0
    outer loop
      vertex 6.9 -1.55885 3
      vertex 7.20443 -1.33766 0
      vertex 6.9 -1.55885 0
    endloop
  endfacet
  facet normal -0.406737 0.913545 0
    outer loop
      vertex 6.9 -1.55885 3
      vertex 6.9 -1.55885 0
      vertex 6.55623 -1.7119 3
    endloop
  endfacet
  facet normal -0.406737 0.913545 0
    outer loop
      vertex 6.55623 -1.7119 3
      vertex 6.9 -1.55885 0
      vertex 6.55623 -1.7119 0
    endloop
  endfacet
  facet normal -0.20791 0.978148 0
    outer loop
      vertex 6.55623 -1.7119 3
      vertex 6.55623 -1.7119 0
      vertex 6.18815 -1.79014 3
    endloop
  endfacet
  facet normal -0.20791 0.978148 0
    outer loop
      vertex 6.18815 -1.79014 3
      vertex 6.55623 -1.7119 0
      vertex 6.18815 -1.79014 0
    endloop
  endfacet
  facet normal 0 1 0
    outer loop
      vertex 6.18815 -1.79014 3
      vertex 6.18815 -1.79014 0
      vertex 5.81185 -1.79014 3
    endloop
  endfacet
  facet normal 0 1 0
    outer loop
      vertex 5.81185 -1.79014 3
      vertex 6.18815 -1.79014 0
      vertex 5.81185 -1.79014 0
    endloop
  endfacet
  facet normal 0.20791 0.978148 0
    outer loop
      vertex 5.81185 -1.79014 3
      vertex 5.81185 -1.79014 0
      vertex 5.44377 -1.7119 3
    endloop
  endfacet
  facet normal 0.20791 0.978148 0
    outer loop
      vertex 5.44377 -1.7119 3
      vertex 5.81185 -1.79014 0
      vertex 5.44377 -1.7119 0
    endloop
  endfacet
  facet normal 0.406737 0.913545 0
    outer loop
      vertex 5.44377 -1.7119 3
      vertex 5.44377 -1.7119 0
      vertex 5.1 -1.55885 3
    endloop
  endfacet
  facet normal 0.406737 0.913545 0
    outer loop
      vertex 5.1 -1.55885 3
      vertex 5.44377 -1.7119 0
      vertex 5.1 -1.55885 0
    endloop
  endfacet
  facet normal 0.587785 0.809017 0
    outer loop
      vertex 5.1 -1.55885 3
      vertex 5.1 -1.55885 0
      vertex 4.79556 -1.33766 3
    endloop
  endfacet
  facet normal 0.587785 0.809017 0
    outer loop
      vertex 4.79556 -1.33766 3
      vertex 5.1 -1.55885 0
      vertex 4.79556 -1.33766 0
    endloop
  endfacet
  facet normal 0.743145 0.66913 0
    outer loop
      vertex 4.54377 -1.05801 3
      vertex 4.79556 -1.33766 3
      vertex 4.79556 -1.33766 0
    endloop
  endfacet
  facet normal 0.743145 0.66913 0
    outer loop
      vertex 4.54377 -1.05801 0
      vertex 4.54377 -1.05801 3
      vertex 4.79556 -1.33766 0
    endloop
  endfacet
  facet normal 0.866025 0.5 0
    outer loop
      vertex 4.35562 -0.732126 3
      vertex 4.54377 -1.05801 3
      vertex 4.54377 -1.05801 0
    endloop
  endfacet
  facet normal 0.866025 0.5 0
    outer loop
      vertex 4.35562 -0.732126 0
      vertex 4.35562 -0.732126 3
      vertex 4.54377 -1.05801 0
    endloop
  endfacet
  facet normal 0.951056 0.309017 0
    outer loop
      vertex 4.23933 -0.374241 3
      vertex 4.35562 -0.732126 3
      vertex 4.35562 -0.732126 0
    endloop
  endfacet
  facet normal 0.951056 0.309017 0
    outer loop
      vertex 4.23933 -0.374241 0
      vertex 4.23933 -0.374241 3
      vertex 4.35562 -0.732126 0
    endloop
  endfacet
  facet normal 1 0 0
    outer loop
      vertex 17 20 0
      vertex 17 20 3
      vertex 17 -20 3
    endloop
  endfacet
  facet normal 1 0 0
    outer loop
      vertex 17 -20 0
      vertex 17 20 0
      vertex 17 -20 3
    endloop
  endfacet
  facet normal 0 -1 0
    outer loop
      vertex 57 20 0
      vertex 57 20 3
      vertex 17 20 3
    endloop
  endfacet
  facet normal 0 -1 0
    outer loop
      vertex 17 20 0
      vertex 57 20 0
      vertex 17 20 3
    endloop
  endfacet
  facet normal -1 0 0
    outer loop
      vertex 57 20 3
      vertex 57 20 0
      vertex 57 -20 3
    endloop
  endfacet
  facet normal -1 0 0
    outer loop
      vertex 57 -20 3
      vertex 57 20 0
      vertex 57 -20 0
    endloop
  endfacet
  facet normal 0 1 0
    outer loop
      vertex 57 -20 3
      vertex 57 -20 0
      vertex 17 -20 3
    endloop
  endfacet
  facet normal 0 1 0
    outer loop
      vertex 17 -20 3
      vertex 57 -20 0
      vertex 17 -20 0
    endloop
  endfacet
  facet normal 0.994522 -0.104528 0
    outer loop
      vertex 44.2393 -55.6258 0
      vertex 44.2393 -55.6258 3
      vertex 44.2 -56 3
    endloop
  endfacet
  facet normal 0.994522 -0.104528 0
    outer loop
      vertex 44.2 -56 0
      vertex 44.2393 -55.6258 0
      vertex 44.2 -56 3
    endloop
  endfacet
  facet normal 0.994522 0.104528 0
    outer loop
      vertex 44.2 -56 3
      vertex 44.2393 -56.3742 3
      vertex 44.2393 -56.3742 0
    endloop
  endfacet
  facet normal 0.994522 0.104528 0
    outer loop
      vertex 44.2 -56 0
      vertex 44.2 -56 3
      vertex 44.2393 -56.3742 0
    endloop
  endfacet
  facet normal 0.951056 -0.309017 0
    outer loop
      vertex 44.3556 -55.2679 0
      vertex 44.3556 -55.2679 3
      vertex 44.2393 -55.6258 3
    endloop
  endfacet
  facet normal 0.951056 -0.309017 0
    outer loop
      vertex 44.2393 -55.6258 0
      vertex 44.3556 -55.2679 0
      vertex 44.2393 -55.6258 3
    endloop
  endfacet
  facet normal 0.866025 -0.5 0
    outer loop
      vertex 44.5438 -54.942 0
      vertex 44.5438 -54.942 3
      vertex 44.3556 -55.2679 3
    endloop
  endfacet
  facet normal 0.866025 -0.5 0
    outer loop
      vertex 44.3556 -55.2679 0
      vertex 44.5438 -54.942 0
      vertex 44.3556 -55.2679 3
    endloop
  endfacet
  facet normal 0.743145 -0.66913 0
    outer loop
      vertex 44.7956 -54.6623 0
      vertex 44.7956 -54.6623 3
      vertex 44.5438 -54.942 3
    endloop
  endfacet
  facet normal 0.743145 -0.66913 0
    outer loop
      vertex 44.5438 -54.942 0
      vertex 44.7956 -54.6623 0
      vertex 44.5438 -54.942 3
    endloop
  endfacet
  facet normal 0.587785 -0.809017 0
    outer loop
      vertex 45.1 -54.4412 0
      vertex 45.1 -54.4412 3
      vertex 44.7956 -54.6623 3
    endloop
  endfacet
  facet normal 0.587785 -0.809017 0
    outer loop
      vertex 44.7956 -54.6623 0
      vertex 45.1 -54.4412 0
      vertex 44.7956 -54.6623 3
    endloop
  endfacet
  facet normal 0.406737 -0.913545 0
    outer loop
      vertex 45.4438 -54.2881 0
      vertex 45.4438 -54.2881 3
      vertex 45.1 -54.4412 3
    endloop
  endfacet
  facet normal 0.406737 -0.913545 0
    outer loop
      vertex 45.1 -54.4412 0
      vertex 45.4438 -54.2881 0
      vertex 45.1 -54.4412 3
    endloop
  endfacet
  facet normal 0.20791 -0.978148 0
    outer loop
      vertex 45.8118 -54.2099 0
      vertex 45.8118 -54.2099 3
      vertex 45.4438 -54.2881 3
    endloop
  endfacet
  facet normal 0.20791 -0.978148 0
    outer loop
      vertex 45.4438 -54.2881 0
      vertex 45.8118 -54.2099 0
      vertex 45.4438 -54.2881 3
    endloop
  endfacet
  facet normal 0 -1 0
    outer loop
      vertex 46.1882 -54.2099 0
      vertex 46.1882 -54.2099 3
      vertex 45.8118 -54.2099 3
    endloop
  endfacet
  facet normal 0 -1 0
    outer loop
      vertex 45.8118 -54.2099 0
      vertex 46.1882 -54.2099 0
      vertex 45.8118 -54.2099 3
    endloop
  endfacet
  facet normal -0.20791 -0.978148 0
    outer loop
      vertex 46.5562 -54.2881 0
      vertex 46.5562 -54.2881 3
      vertex 46.1882 -54.2099 3
    endloop
  endfacet
  facet normal -0.20791 -0.978148 0
    outer loop
      vertex 46.1882 -54.2099 0
      vertex 46.5562 -54.2881 0
      vertex 46.1882 -54.2099 3
    endloop
  endfacet
  facet normal -0.406737 -0.913545 0
    outer loop
      vertex 46.9 -54.4412 0
      vertex 46.9 -54.4412 3
      vertex 46.5562 -54.2881 3
    endloop
  endfacet
  facet normal -0.406737 -0.913545 0
    outer loop
      vertex 46.5562 -54.2881 0
      vertex 46.9 -54.4412 0
      vertex 46.5562 -54.2881 3
    endloop
  endfacet
  facet normal -0.587785 -0.809017 0
    outer loop
      vertex 47.2044 -54.6623 0
      vertex 47.2044 -54.6623 3
      vertex 46.9 -54.4412 3
    endloop
  endfacet
  facet normal -0.587785 -0.809017 0
    outer loop
      vertex 46.9 -54.4412 0
      vertex 47.2044 -54.6623 0
      vertex 46.9 -54.4412 3
    endloop
  endfacet
  facet normal -0.743145 -0.66913 0
    outer loop
      vertex 47.4562 -54.942 3
      vertex 47.2044 -54.6623 3
      vertex 47.4562 -54.942 0
    endloop
  endfacet
  facet normal -0.743145 -0.66913 0
    outer loop
      vertex 47.4562 -54.942 0
      vertex 47.2044 -54.6623 3
      vertex 47.2044 -54.6623 0
    endloop
  endfacet
  facet normal -0.866025 -0.5 0
    outer loop
      vertex 47.6444 -55.2679 3
      vertex 47.4562 -54.942 3
      vertex 47.6444 -55.2679 0
    endloop
  endfacet
  facet normal -0.866025 -0.5 0
    outer loop
      vertex 47.6444 -55.2679 0
      vertex 47.4562 -54.942 3
      vertex 47.4562 -54.942 0
    endloop
  endfacet
  facet normal -0.951056 -0.309017 0
    outer loop
      vertex 47.7607 -55.6258 3
      vertex 47.6444 -55.2679 3
      vertex 47.7607 -55.6258 0
    endloop
  endfacet
  facet normal -0.951056 -0.309017 0
    outer loop
      vertex 47.7607 -55.6258 0
      vertex 47.6444 -55.2679 3
      vertex 47.6444 -55.2679 0
    endloop
  endfacet
  facet normal -0.994522 -0.104528 0
    outer loop
      vertex 47.8 -56 3
      vertex 47.7607 -55.6258 3
      vertex 47.8 -56 0
    endloop
  endfacet
  facet normal -0.994522 -0.104528 0
    outer loop
      vertex 47.8 -56 0
      vertex 47.7607 -55.6258 3
      vertex 47.7607 -55.6258 0
    endloop
  endfacet
  facet normal -0.994522 0.104528 0
    outer loop
      vertex 47.8 -56 3
      vertex 47.8 -56 0
      vertex 47.7607 -56.3742 3
    endloop
  endfacet
  facet normal -0.994522 0.104528 0
    outer loop
      vertex 47.7607 -56.3742 3
      vertex 47.8 -56 0
      vertex 47.7607 -56.3742 0
    endloop
  endfacet
  facet normal -0.951056 0.309017 0
    outer loop
      vertex 47.7607 -56.3742 3
      vertex 47.7607 -56.3742 0
      vertex 47.6444 -56.7321 3
    endloop
  endfacet
  facet normal -0.951056 0.309017 0
    outer loop
      vertex 47.6444 -56.7321 3
      vertex 47.7607 -56.3742 0
      vertex 47.6444 -56.7321 0
    endloop
  endfacet
  facet normal -0.866025 0.5 0
    outer loop
      vertex 47.6444 -56.7321 3
      vertex 47.6444 -56.7321 0
      vertex 47.4562 -57.058 3
    endloop
  endfacet
  facet normal -0.866025 0.5 0
    outer loop
      vertex 47.4562 -57.058 3
      vertex 47.6444 -56.7321 0
      vertex 47.4562 -57.058 0
    endloop
  endfacet
  facet normal -0.743145 0.66913 0
    outer loop
      vertex 47.4562 -57.058 3
      vertex 47.4562 -57.058 0
      vertex 47.2044 -57.3377 3
    endloop
  endfacet
  facet normal -0.743145 0.66913 0
    outer loop
      vertex 47.2044 -57.3377 3
      vertex 47.4562 -57.058 0
      vertex 47.2044 -57.3377 0
    endloop
  endfacet
  facet normal -0.587785 0.809017 0
    outer loop
      vertex 47.2044 -57.3377 3
      vertex 47.2044 -57.3377 0
      vertex 46.9 -57.5588 3
    endloop
  endfacet
  facet normal -0.587785 0.809017 0
    outer loop
      vertex 46.9 -57.5588 3
      vertex 47.2044 -57.3377 0
      vertex 46.9 -57.5588 0
    endloop
  endfacet
  facet normal -0.406737 0.913545 0
    outer loop
      vertex 46.9 -57.5588 3
      vertex 46.9 -57.5588 0
      vertex 46.5562 -57.7119 3
    endloop
  endfacet
  facet normal -0.406737 0.913545 0
    outer loop
      vertex 46.5562 -57.7119 3
      vertex 46.9 -57.5588 0
      vertex 46.5562 -57.7119 0
    endloop
  endfacet
  facet normal -0.20791 0.978148 0
    outer loop
      vertex 46.5562 -57.7119 3
      vertex 46.5562 -57.7119 0
      vertex 46.1882 -57.7901 3
    endloop
  endfacet
  facet normal -0.20791 0.978148 0
    outer loop
      vertex 46.1882 -57.7901 3
      vertex 46.5562 -57.7119 0
      vertex 46.1882 -57.7901 0
    endloop
  endfacet
  facet normal 0 1 0
    outer loop
      vertex 46.1882 -57.7901 3
      vertex 46.1882 -57.7901 0
      vertex 45.8118 -57.7901 3
    endloop
  endfacet
  facet normal 0 1 0
    outer loop
      vertex 45.8118 -57.7901 3
      vertex 46.1882 -57.7901 0
      vertex 45.8118 -57.7901 0
    endloop
  endfacet
  facet normal 0.20791 0.978148 0
    outer loop
      vertex 45.8118 -57.7901 3
      vertex 45.8118 -57.7901 0
      vertex 45.4438 -57.7119 3
    endloop
  endfacet
  facet normal 0.20791 0.978148 0
    outer loop
      vertex 45.4438 -57.7119 3
      vertex 45.8118 -57.7901 0
      vertex 45.4438 -57.7119 0
    endloop
  endfacet
  facet normal 0.406737 0.913545 0
    outer loop
      vertex 45.4438 -57.7119 3
      vertex 45.4438 -57.7119 0
      vertex 45.1 -57.5588 3
    endloop
  endfacet
  facet normal 0.406737 0.913545 0
    outer loop
      vertex 45.1 -57.5588 3
      vertex 45.4438 -57.7119 0
      vertex 45.1 -57.5588 0
    endloop
  endfacet
  facet normal 0.587785 0.809017 0
    outer loop
      vertex 45.1 -57.5588 3
      vertex 45.1 -57.5588 0
      vertex 44.7956 -57.3377 3
    endloop
  endfacet
  facet normal 0.587785 0.809017 0
    outer loop
      vertex 44.7956 -57.3377 3
      vertex 45.1 -57.5588 0
      vertex 44.7956 -57.3377 0
    endloop
  endfacet
  facet normal 0.743145 0.66913 0
    outer loop
      vertex 44.5438 -57.058 3
      vertex 44.7956 -57.3377 3
      vertex 44.7956 -57.3377 0
    endloop
  endfacet
  facet normal 0.743145 0.66913 0
    outer loop
      vertex 44.5438 -57.058 0
      vertex 44.5438 -57.058 3
      vertex 44.7956 -57.3377 0
    endloop
  endfacet
  facet normal 0.866025 0.5 0
    outer loop
      vertex 44.3556 -56.7321 3
      vertex 44.5438 -57.058 3
      vertex 44.5438 -57.058 0
    endloop
  endfacet
  facet normal 0.866025 0.5 0
    outer loop
      vertex 44.3556 -56.7321 0
      vertex 44.3556 -56.7321 3
      vertex 44.5438 -57.058 0
    endloop
  endfacet
  facet normal 0.951056 0.309017 0
    outer loop
      vertex 44.2393 -56.3742 3
      vertex 44.3556 -56.7321 3
      vertex 44.3556 -56.7321 0
    endloop
  endfacet
  facet normal 0.951056 0.309017 0
    outer loop
      vertex 44.2393 -56.3742 0
      vertex 44.2393 -56.3742 3
      vertex 44.3556 -56.7321 0
    endloop
  endfacet
  facet normal 0.994522 -0.104528 0
    outer loop
      vertex 44.2393 56.3742 0
      vertex 44.2393 56.3742 3
      vertex 44.2 56 3
    endloop
  endfacet
  facet normal 0.994522 -0.104528 0
    outer loop
      vertex 44.2 56 0
      vertex 44.2393 56.3742 0
      vertex 44.2 56 3
    endloop
  endfacet
  facet normal 0.994522 0.104528 0
    outer loop
      vertex 44.2 56 3
      vertex 44.2393 55.6258 3
      vertex 44.2393 55.6258 0
    endloop
  endfacet
  facet normal 0.994522 0.104528 0
    outer loop
      vertex 44.2 56 0
      vertex 44.2 56 3
      vertex 44.2393 55.6258 0
    endloop
  endfacet
  facet normal 0.951056 -0.309017 0
    outer loop
      vertex 44.3556 56.7321 0
      vertex 44.3556 56.7321 3
      vertex 44.2393 56.3742 3
    endloop
  endfacet
  facet normal 0.951056 -0.309017 0
    outer loop
      vertex 44.2393 56.3742 0
      vertex 44.3556 56.7321 0
      vertex 44.2393 56.3742 3
    endloop
  endfacet
  facet normal 0.866025 -0.5 0
    outer loop
      vertex 44.5438 57.058 0
      vertex 44.5438 57.058 3
      vertex 44.3556 56.7321 3
    endloop
  endfacet
  facet normal 0.866025 -0.5 0
    outer loop
      vertex 44.3556 56.7321 0
      vertex 44.5438 57.058 0
      vertex 44.3556 56.7321 3
    endloop
  endfacet
  facet normal 0.743145 -0.66913 0
    outer loop
      vertex 44.7956 57.3377 0
      vertex 44.7956 57.3377 3
      vertex 44.5438 57.058 3
    endloop
  endfacet
  facet normal 0.743145 -0.66913 0
    outer loop
      vertex 44.5438 57.058 0
      vertex 44.7956 57.3377 0
      vertex 44.5438 57.058 3
    endloop
  endfacet
  facet normal 0.587785 -0.809017 0
    outer loop
      vertex 45.1 57.5588 0
      vertex 45.1 57.5588 3
      vertex 44.7956 57.3377 3
    endloop
  endfacet
  facet normal 0.587785 -0.809017 0
    outer loop
      vertex 44.7956 57.3377 0
      vertex 45.1 57.5588 0
      vertex 44.7956 57.3377 3
    endloop
  endfacet
  facet normal 0.406737 -0.913545 0
    outer loop
      vertex 45.4438 57.7119 0
      vertex 45.4438 57.7119 3
      vertex 45.1 57.5588 3
    endloop
  endfacet
  facet normal 0.406737 -0.913545 0
    outer loop
      vertex 45.1 57.5588 0
      vertex 45.4438 57.7119 0
      vertex 45.1 57.5588 3
    endloop
  endfacet
  facet normal 0.20791 -0.978148 0
    outer loop
      vertex 45.8118 57.7901 0
      vertex 45.8118 57.7901 3
      vertex 45.4438 57.7119 3
    endloop
  endfacet
  facet normal 0.20791 -0.978148 0
    outer loop
      vertex 45.4438 57.7119 0
      vertex 45.8118 57.7901 0
      vertex 45.4438 57.7119 3
    endloop
  endfacet
  facet normal 0 -1 0
    outer loop
      vertex 46.1882 57.7901 0
      vertex 46.1882 57.7901 3
      vertex 45.8118 57.7901 3
    endloop
  endfacet
  facet normal 0 -1 0
    outer loop
      vertex 45.8118 57.7901 0
      vertex 46.1882 57.7901 0
      vertex 45.8118 57.7901 3
    endloop
  endfacet
  facet normal -0.20791 -0.978148 0
    outer loop
      vertex 46.5562 57.7119 0
      vertex 46.5562 57.7119 3
      vertex 46.1882 57.7901 3
    endloop
  endfacet
  facet normal -0.20791 -0.978148 0
    outer loop
      vertex 46.1882 57.7901 0
      vertex 46.5562 57.7119 0
      vertex 46.1882 57.7901 3
    endloop
  endfacet
  facet normal -0.406737 -0.913545 0
    outer loop
      vertex 46.9 57.5588 0
      vertex 46.9 57.5588 3
      vertex 46.5562 57.7119 3
    endloop
  endfacet
  facet normal -0.406737 -0.913545 0
    outer loop
      vertex 46.5562 57.7119 0
      vertex 46.9 57.5588 0
      vertex 46.5562 57.7119 3
    endloop
  endfacet
  facet normal -0.587785 -0.809017 0
    outer loop
      vertex 47.2044 57.3377 0
      vertex 47.2044 57.3377 3
      vertex 46.9 57.5588 3
    endloop
  endfacet
  facet normal -0.587785 -0.809017 0
    outer loop
      vertex 46.9 57.5588 0
      vertex 47.2044 57.3377 0
      vertex 46.9 57.5588 3
    endloop
  endfacet
  facet normal -0.743145 -0.66913 0
    outer loop
      vertex 47.4562 57.058 3
      vertex 47.2044 57.3377 3
      vertex 47.4562 57.058 0
    endloop
  endfacet
  facet normal -0.743145 -0.66913 0
    outer loop
      vertex 47.4562 57.058 0
      vertex 47.2044 57.3377 3
      vertex 47.2044 57.3377 0
    endloop
  endfacet
  facet normal -0.866025 -0.5 0
    outer loop
      vertex 47.6444 56.7321 3
      vertex 47.4562 57.058 3
      vertex 47.6444 56.7321 0
    endloop
  endfacet
  facet normal -0.866025 -0.5 0
    outer loop
      vertex 47.6444 56.7321 0
      vertex 47.4562 57.058 3
      vertex 47.4562 57.058 0
    endloop
  endfacet
  facet normal -0.951056 -0.309017 0
    outer loop
      vertex 47.7607 56.3742 3
      vertex 47.6444 56.7321 3
      vertex 47.7607 56.3742 0
    endloop
  endfacet
  facet normal -0.951056 -0.309017 0
    outer loop
      vertex 47.7607 56.3742 0
      vertex 47.6444 56.7321 3
      vertex 47.6444 56.7321 0
    endloop
  endfacet
  facet normal -0.994522 -0.104528 0
    outer loop
      vertex 47.8 56 3
      vertex 47.7607 56.3742 3
      vertex 47.8 56 0
    endloop
  endfacet
  facet normal -0.994522 -0.104528 0
    outer loop
      vertex 47.8 56 0
      vertex 47.7607 56.3742 3
      vertex 47.7607 56.3742 0
    endloop
  endfacet
  facet normal -0.994522 0.104528 0
    outer loop
      vertex 47.8 56 3
      vertex 47.8 56 0
      vertex 47.7607 55.6258 3
    endloop
  endfacet
  facet normal -0.994522 0.104528 0
    outer loop
      vertex 47.7607 55.6258 3
      vertex 47.8 56 0
      vertex 47.7607 55.6258 0
    endloop
  endfacet
  facet normal -0.951056 0.309017 0
    outer loop
      vertex 47.7607 55.6258 3
      vertex 47.7607 55.6258 0
      vertex 47.6444 55.2679 3
    endloop
  endfacet
  facet normal -0.951056 0.309017 0
    outer loop
      vertex 47.6444 55.2679 3
      vertex 47.7607 55.6258 0
      vertex 47.6444 55.2679 0
    endloop
  endfacet
  facet normal -0.866025 0.5 0
    outer loop
      vertex 47.6444 55.2679 3
      vertex 47.6444 55.2679 0
      vertex 47.4562 54.942 3
    endloop
  endfacet
  facet normal -0.866025 0.5 0
    outer loop
      vertex 47.4562 54.942 3
      vertex 47.6444 55.2679 0
      vertex 47.4562 54.942 0
    endloop
  endfacet
  facet normal -0.743145 0.66913 0
    outer loop
      vertex 47.4562 54.942 3
      vertex 47.4562 54.942 0
      vertex 47.2044 54.6623 3
    endloop
  endfacet
  facet normal -0.743145 0.66913 0
    outer loop
      vertex 47.2044 54.6623 3
      vertex 47.4562 54.942 0
      vertex 47.2044 54.6623 0
    endloop
  endfacet
  facet normal -0.587785 0.809017 0
    outer loop
      vertex 47.2044 54.6623 3
      vertex 47.2044 54.6623 0
      vertex 46.9 54.4412 3
    endloop
  endfacet
  facet normal -0.587785 0.809017 0
    outer loop
      vertex 46.9 54.4412 3
      vertex 47.2044 54.6623 0
      vertex 46.9 54.4412 0
    endloop
  endfacet
  facet normal -0.406737 0.913545 0
    outer loop
      vertex 46.9 54.4412 3
      vertex 46.9 54.4412 0
      vertex 46.5562 54.2881 3
    endloop
  endfacet
  facet normal -0.406737 0.913545 0
    outer loop
      vertex 46.5562 54.2881 3
      vertex 46.9 54.4412 0
      vertex 46.5562 54.2881 0
    endloop
  endfacet
  facet normal -0.20791 0.978148 0
    outer loop
      vertex 46.5562 54.2881 3
      vertex 46.5562 54.2881 0
      vertex 46.1882 54.2099 3
    endloop
  endfacet
  facet normal -0.20791 0.978148 0
    outer loop
      vertex 46.1882 54.2099 3
      vertex 46.5562 54.2881 0
      vertex 46.1882 54.2099 0
    endloop
  endfacet
  facet normal 0 1 0
    outer loop
      vertex 46.1882 54.2099 3
      vertex 46.1882 54.2099 0
      vertex 45.8118 54.2099 3
    endloop
  endfacet
  facet normal 0 1 0
    outer loop
      vertex 45.8118 54.2099 3
      vertex 46.1882 54.2099 0
      vertex 45.8118 54.2099 0
    endloop
  endfacet
  facet normal 0.20791 0.978148 0
    outer loop
      vertex 45.8118 54.2099 3
      vertex 45.8118 54.2099 0
      vertex 45.4438 54.2881 3
    endloop
  endfacet
  facet normal 0.20791 0.978148 0
    outer loop
      vertex 45.4438 54.2881 3
      vertex 45.8118 54.2099 0
      vertex 45.4438 54.2881 0
    endloop
  endfacet
  facet normal 0.406737 0.913545 0
    outer loop
      vertex 45.4438 54.2881 3
      vertex 45.4438 54.2881 0
      vertex 45.1 54.4412 3
    endloop
  endfacet
  facet normal 0.406737 0.913545 0
    outer loop
      vertex 45.1 54.4412 3
      vertex 45.4438 54.2881 0
      vertex 45.1 54.4412 0
    endloop
  endfacet
  facet normal 0.587785 0.809017 0
    outer loop
      vertex 45.1 54.4412 3
      vertex 45.1 54.4412 0
      vertex 44.7956 54.6623 3
    endloop
  endfacet
  facet normal 0.587785 0.809017 0
    outer loop
      vertex 44.7956 54.6623 3
      vertex 45.1 54.4412 0
      vertex 44.7956 54.6623 0
    endloop
  endfacet
  facet normal 0.743145 0.66913 0
    outer loop
      vertex 44.5438 54.942 3
      vertex 44.7956 54.6623 3
      vertex 44.7956 54.6623 0
    endloop
  endfacet
  facet normal 0.743145 0.66913 0
    outer loop
      vertex 44.5438 54.942 0
      vertex 44.5438 54.942 3
      vertex 44.7956 54.6623 0
    endloop
  endfacet
  facet normal 0.866025 0.5 0
    outer loop
      vertex 44.3556 55.2679 3
      vertex 44.5438 54.942 3
      vertex 44.5438 54.942 0
    endloop
  endfacet
  facet normal 0.866025 0.5 0
    outer loop
      vertex 44.3556 55.2679 0
      vertex 44.3556 55.2679 3
      vertex 44.5438 54.942 0
    endloop
  endfacet
  facet normal 0.951056 0.309017 0
    outer loop
      vertex 44.2393 55.6258 3
      vertex 44.3556 55.2679 3
      vertex 44.3556 55.2679 0
    endloop
  endfacet
  facet normal 0.951056 0.309017 0
    outer loop
      vertex 44.2393 55.6258 0
      vertex 44.2393 55.6258 3
      vertex 44.3556 55.2679 0
    endloop
  endfacet
endsolid OpenSCAD_Model
